<?xml version="1.0" standalone="no"?>
<!DOCTYPE svg PUBLIC "-//W3C//DTD SVG 20010904//EN"
 "http://www.w3.org/TR/2001/REC-SVG-20010904/DTD/svg10.dtd">
<svg version="1.0" xmlns="http://www.w3.org/2000/svg"
 width="512.000000pt" height="512.000000pt" viewBox="0 0 512.000000 512.000000"
 preserveAspectRatio="xMidYMid meet">

<g transform="translate(0.000000,512.000000) scale(0.100000,-0.100000)"
fill="#000000" stroke="none">
<path d="M435 4251 c-22 -10 -48 -27 -57 -37 -26 -29 -48 -89 -48 -128 l0 -34
-97 -4 c-117 -5 -163 -23 -201 -81 l-27 -41 -3 -1455 c-1 -801 0 -1471 3
-1489 7 -40 59 -101 102 -118 27 -12 351 -14 1881 -14 l1849 0 21 23 c27 29
28 67 3 98 l-19 24 -1844 5 -1843 5 -3 1434 c-1 1051 1 1437 9 1447 8 10 36
14 90 14 l79 0 0 -484 c0 -474 0 -484 21 -510 27 -34 77 -36 107 -3 l22 23 0
581 c0 320 3 588 6 597 5 14 30 16 176 16 166 0 169 0 193 25 14 13 25 36 25
50 0 14 -11 37 -25 50 -24 25 -26 25 -202 25 -151 0 -184 -3 -218 -19z"/>
<path d="M1085 4246 c-30 -30 -32 -65 -6 -97 l19 -24 629 -5 628 -5 36 -24
c20 -14 47 -41 60 -60 l24 -35 0 -1277 0 -1277 -31 -38 c-16 -21 -48 -47 -70
-58 -38 -21 -51 -21 -947 -24 -628 -2 -913 1 -927 8 -20 11 -20 22 -20 666 l0
655 -25 24 c-31 32 -69 32 -100 0 l-25 -24 0 -667 c0 -657 0 -668 21 -711 15
-30 35 -52 67 -71 l47 -27 945 0 945 0 56 23 c32 12 78 41 103 63 l46 41 46
-41 c25 -22 71 -51 103 -63 l56 -23 945 0 945 0 47 27 c32 19 52 41 67 71 21
43 21 44 21 1335 l0 1292 79 0 c54 0 82 -4 90 -14 8 -10 10 -396 9 -1447 l-3
-1434 -433 -5 -434 -5 -19 -24 c-26 -32 -24 -73 4 -99 23 -22 25 -22 460 -22
345 0 444 3 470 14 43 17 95 78 102 118 3 18 4 688 3 1489 l-3 1455 -27 41
c-38 58 -84 76 -200 81 l-98 4 0 37 c-1 78 -54 150 -129 172 -24 7 -339 9
-976 7 l-940 -3 -59 -29 c-32 -16 -73 -42 -92 -58 l-34 -30 -34 30 c-19 16
-60 42 -92 58 l-59 29 -633 3 -632 3 -25 -25z m3549 -142 c3 -9 6 -634 6
-1389 0 -1362 0 -1374 -20 -1385 -14 -7 -299 -10 -927 -8 -896 3 -909 3 -947
24 -22 11 -54 37 -70 58 l-31 38 0 1277 0 1277 25 36 c24 35 65 67 105 80 11
3 432 6 936 7 827 1 917 -1 923 -15z"/>
<path d="M2930 3843 c-51 -19 -68 -85 -30 -123 20 -20 33 -20 735 -20 l716 0
24 25 c14 13 25 31 25 39 0 28 -22 64 -47 75 -25 11 -1392 15 -1423 4z"/>
<path d="M2906 3599 c-34 -27 -36 -79 -4 -109 21 -20 31 -20 731 -20 480 0
715 3 728 11 48 25 44 105 -7 128 -18 8 -226 11 -723 11 -691 0 -699 0 -725
-21z"/>
<path d="M2902 3370 c-32 -30 -30 -82 4 -109 26 -21 34 -21 734 -21 677 0 709
1 731 19 32 26 32 86 0 112 -22 18 -54 19 -735 19 -703 0 -713 0 -734 -20z"/>
<path d="M2900 3140 c-27 -27 -26 -81 1 -106 19 -17 41 -19 242 -22 237 -3
266 1 286 44 16 37 14 52 -14 79 l-24 25 -236 0 c-222 0 -236 -1 -255 -20z"/>
<path d="M2996 2836 c-45 -17 -90 -57 -106 -96 -7 -18 -10 -87 -8 -201 3 -164
4 -176 26 -207 13 -18 41 -41 62 -52 38 -19 61 -20 664 -20 418 0 634 4 653
11 40 15 73 48 94 94 15 33 19 66 19 189 0 176 -13 218 -83 264 l-41 27 -620
2 c-510 2 -628 0 -660 -11z m1243 -150 c8 -9 11 -56 9 -142 l-3 -129 -607 -3
-608 -2 0 138 c0 76 3 142 7 145 3 4 273 7 598 7 494 0 594 -2 604 -14z"/>
<path d="M2969 2137 c-27 -15 -52 -38 -66 -63 -21 -36 -23 -51 -23 -220 0
-172 1 -183 23 -215 32 -48 80 -77 140 -84 29 -4 183 -5 342 -3 305 3 311 4
363 52 47 42 56 73 60 217 6 208 -17 281 -102 320 -37 17 -71 19 -367 19 -322
0 -326 0 -370 -23z m679 -139 c8 -8 12 -54 12 -139 0 -103 -3 -131 -16 -143
-13 -14 -55 -16 -299 -16 -156 0 -290 3 -299 6 -14 5 -16 28 -16 148 0 79 3
146 7 149 3 4 140 7 303 7 217 0 299 -3 308 -12z"/>
<path d="M3933 2128 c-46 -23 -49 -103 -4 -127 11 -6 63 -11 116 -11 89 0 98
2 120 25 30 29 32 64 6 96 -18 22 -28 24 -118 26 -57 2 -107 -2 -120 -9z"/>
<path d="M3927 1879 c-45 -26 -39 -106 9 -128 33 -15 384 -15 417 0 25 11 47
47 47 75 0 8 -11 26 -25 39 -24 25 -25 25 -227 25 -123 0 -210 -5 -221 -11z"/>
<path d="M3915 1680 c-25 -28 -23 -76 4 -103 21 -21 29 -22 227 -22 l206 0 24
28 c29 34 30 56 3 91 l-20 26 -213 0 c-201 0 -214 -1 -231 -20z"/>
<path d="M1715 3963 c-193 -18 -420 -105 -576 -223 -111 -84 -223 -209 -269
-303 -46 -94 -60 -157 -60 -270 0 -70 31 -259 58 -352 9 -28 5 -35 -59 -101
-76 -79 -87 -116 -49 -154 39 -39 77 -27 152 47 l67 66 123 -27 c233 -51 357
-52 482 -6 131 50 278 178 388 338 162 238 229 536 184 816 -21 127 -37 141
-185 162 -91 13 -168 15 -256 7z m272 -159 c19 -5 22 -15 29 -92 22 -270 -60
-531 -233 -735 -143 -170 -299 -242 -468 -218 -93 14 -189 33 -197 40 -4 4 39
53 95 109 l103 103 60 -16 c85 -23 248 -31 279 -15 29 15 45 57 34 87 -14 37
-49 50 -148 56 -51 3 -96 9 -99 12 -3 3 100 112 230 243 130 130 241 247 247
259 15 29 4 69 -22 88 -46 32 -64 22 -223 -136 l-152 -151 -31 55 c-17 30 -31
58 -31 63 0 21 -46 54 -76 54 -36 0 -74 -37 -74 -73 0 -11 23 -63 50 -114 l51
-94 -203 -210 c-140 -145 -204 -206 -209 -197 -4 8 -15 54 -24 103 -21 108
-16 250 10 309 29 69 91 151 166 220 148 137 328 223 537 256 58 9 259 5 299
-6z"/>
<path d="M706 2309 c-34 -27 -36 -79 -4 -109 21 -20 31 -20 731 -20 480 0 715
3 728 11 48 25 44 105 -7 128 -18 8 -226 11 -723 11 -691 0 -699 0 -725 -21z"/>
<path d="M702 2080 c-32 -30 -30 -82 4 -109 26 -21 34 -21 725 -21 497 0 705
3 723 11 51 23 55 103 7 128 -13 8 -248 11 -728 11 -700 0 -710 0 -731 -20z"/>
<path d="M700 1850 c-27 -27 -26 -81 1 -106 20 -18 49 -19 722 -22 496 -2 710
1 729 9 52 21 58 102 9 128 -13 8 -249 11 -730 11 -698 0 -711 0 -731 -20z"/>
<path d="M700 1620 c-27 -27 -26 -81 1 -106 19 -18 39 -19 256 -19 l235 0 24
28 c29 34 30 56 3 91 l-20 26 -240 0 c-226 0 -240 -1 -259 -20z"/>
</g>
</svg>
